<?xml version="1.0" encoding="UTF-8"?>
<svg version="1.1" xmlns="http://www.w3.org/2000/svg" width="304" height="433">
<path d="M0 0 C0.7513623 0.17160645 1.50272461 0.34321289 2.27685547 0.52001953 C30.90574196 7.28289139 53.92850285 22.95714102 75 43 C75.64453125 43.59167969 76.2890625 44.18335938 76.953125 44.79296875 C103.79844053 70.19566219 117.08995693 107.65320449 118.2890625 143.8984375 C119.01149376 182.40613294 109.66425275 217.66942543 84 247 C83.56929199 247.49242187 83.13858398 247.98484375 82.69482422 248.4921875 C74.35585149 257.9640585 65.72870817 266.62781835 54.93359375 273.296875 C52.40567638 275.52348505 52.44672797 276.67274323 52 280 C51.89749357 282.73856261 51.83944519 285.45657806 51.82421875 288.1953125 C51.80100476 289.81511694 51.7768868 291.43490862 51.75195312 293.0546875 C51.71702634 295.58211634 51.68758511 298.10907924 51.67407227 300.63671875 C51.58885998 313.9980055 50.67940868 325.80644259 41 336 C32.55803654 343.85298927 23.68376198 345.45046482 12.4284668 345.43579102 C11.30526031 345.44586685 10.18205383 345.45594269 9.02481079 345.46632385 C5.33284393 345.49468687 1.6412876 345.50067453 -2.05078125 345.50390625 C-4.63234115 345.51355505 -7.21389942 345.5236481 -9.79545593 345.53416443 C-15.19953921 345.55209646 -20.60346127 345.55781749 -26.00756836 345.5559082 C-32.22614757 345.55410758 -38.44394468 345.58574706 -44.66232616 345.63313919 C-50.6771712 345.677322 -56.69159628 345.68786632 -62.70662498 345.68607903 C-65.25058372 345.68960444 -67.79454909 345.70279104 -70.3384037 345.72607613 C-86.49489227 345.86012943 -97.24035836 345.6499391 -110 335 C-111.73046875 332.8515625 -111.73046875 332.8515625 -113.1875 330.625 C-113.67605469 329.89539063 -114.16460937 329.16578125 -114.66796875 328.4140625 C-118.08715485 322.21741438 -118.27182373 316.69321208 -118.1953125 309.7890625 C-118.1924826 308.82092621 -118.18965271 307.85278992 -118.18673706 306.85531616 C-118.17558696 303.77841572 -118.1504918 300.70181172 -118.125 297.625 C-118.11496352 295.5325563 -118.10583884 293.44010802 -118.09765625 291.34765625 C-118.07566453 286.23165749 -118.04117025 281.11587892 -118 276 C-118.77561279 275.70955811 -119.55122559 275.41911621 -120.3503418 275.11987305 C-123.46658722 273.80279779 -125.35012676 272.12370978 -127.8125 269.8125 C-130.84736116 266.99313194 -133.89088321 264.2266581 -137.0625 261.5625 C-159.32529176 241.96591085 -174.62521687 213.16800267 -181.875 184.6875 C-182.16165527 183.56166504 -182.16165527 183.56166504 -182.45410156 182.41308594 C-185.44172689 169.77396682 -186.38346123 157.14035538 -186.3125 144.1875 C-186.31067719 143.49067108 -186.30885437 142.79384216 -186.30697632 142.07589722 C-186.25900145 131.14465852 -185.65161491 120.63805782 -183 110 C-182.75854248 108.97326172 -182.75854248 108.97326172 -182.51220703 107.92578125 C-173.27904813 69.53854617 -145.90426412 38.48243853 -113.08300781 17.79150391 C-109.13284569 15.37681144 -105.09936746 13.15374087 -101 11 C-99.98035156 10.45730469 -98.96070312 9.91460937 -97.91015625 9.35546875 C-88.66752322 4.75163515 -79.04507143 2.1797408 -69 0 C-67.85047852 -0.24991699 -67.85047852 -0.24991699 -66.67773438 -0.50488281 C-45.10643642 -4.95361762 -21.47676332 -4.96810707 0 0 Z M-123.5625 72.6875 C-144.29990661 96.41868714 -153.54725397 127.32042564 -151.72875977 158.50805664 C-149.14535612 191.91638502 -133.18230963 221.14537441 -108 243 C-104.12483853 246.05473209 -100.08154481 248.84148381 -95.94921875 251.53515625 C-95.36597336 251.91662308 -94.78272797 252.2980899 -94.18180847 252.69111633 C-91.9889523 254.06313491 -91.9889523 254.06313491 -89.46885681 255.14808655 C-82.55175605 258.51565663 -82.55175605 258.51565663 -81.08274841 262.46760559 C-80.74493518 265.52449673 -80.71803202 268.44941096 -80.8046875 271.5234375 C-80.7951001 272.50030518 -80.7855127 273.47717285 -80.77563477 274.48364258 C-80.75450895 278.11418467 -80.81984115 281.74481547 -80.875 285.375 C-80.91625 293.50125 -80.9575 301.6275 -81 310 C-49.65 310 -18.3 310 14 310 C13.89380685 293.8594333 13.89380685 293.8594333 13.66723633 277.72045898 C13.62131339 261.79016476 13.62131339 261.79016476 17.29370117 257.02172852 C20.14919773 255.22319188 22.81635938 254.09223405 26 253 C27.94289118 251.80334178 27.94289118 251.80334178 29.57421875 250.47265625 C30.60160156 249.67730469 31.62898437 248.88195312 32.6875 248.0625 C58.48440671 227.65064784 79.87439734 199.12600279 83.7890625 165.546875 C85.92485528 129.633915 77.47850691 98.22327553 53.5625 70.8125 C34.67840092 50.43327432 6.85406098 33.40417482 -21.56225586 31.86083984 C-62.03811401 30.51131218 -95.48751529 42.9610456 -123.5625 72.6875 Z " fill="#E8EAED" transform="translate(186,3)"/>
<path d="M0 0 C10.60217554 8.63689422 18.39273716 21.30675091 20 35 C21.24883487 52.51903257 18.99060889 68.46384777 7.26171875 82.359375 C-0.24765133 90.83138966 -8.71006657 98.28075004 -17.25 105.6875 C-31.08502002 117.79667907 -35.33104601 128.59749876 -36.6875 146.9375 C-36.790625 148.938125 -36.89375 150.93875 -37 153 C-46.24 153 -55.48 153 -65 153 C-64.16512443 125.95003159 -60.20990402 107.52759556 -40.1640625 87.9609375 C-37.68087764 85.71083137 -35.10748672 83.60466559 -32.5 81.5 C-22.78890091 73.64247169 -13.22632413 64.91267997 -11 52 C-10.00924813 41.3958589 -11.89397167 31.8627591 -18.1875 23.125 C-24.59833808 15.61166111 -32.2518839 11.47885453 -42 10 C-54.20526888 9.06810248 -65.20057421 10.20129031 -75 18 C-84.29486597 26.32665077 -86.80179403 37.27324478 -90 49 C-99.9 49 -109.8 49 -120 49 C-120 32.67318564 -113.59844272 16.82628352 -102.16015625 5.1015625 C-101.44730469 4.40804687 -100.73445313 3.71453125 -100 3 C-99.48308594 2.45085937 -98.96617188 1.90171875 -98.43359375 1.3359375 C-73.57473856 -22.93876704 -26.05101254 -19.60786135 0 0 Z " fill="#E8EAED" transform="translate(202,83)"/>
<path d="M0 0 C40.59 0 81.18 0 123 0 C123 25 123 25 118 31 C115.14852538 32.90248359 112.96944813 33.25250296 109.57315063 33.26742554 C108.69283676 33.27595551 107.81252289 33.28448547 106.90553284 33.29327393 C105.94751266 33.29236755 104.98949249 33.29146118 104.00244141 33.29052734 C102.47983452 33.30060318 102.47983452 33.30060318 100.9264679 33.31088257 C97.56811642 33.32989327 94.20996445 33.33378831 90.8515625 33.3359375 C88.51752642 33.34236319 86.18349116 33.34909138 83.84945679 33.35610962 C78.95528292 33.36809001 74.06117968 33.37178964 69.16699219 33.37060547 C62.89662123 33.37040222 56.62670319 33.39770775 50.35643959 33.43214989 C45.53514527 33.45439037 40.71396045 33.45844388 35.89262009 33.45738602 C33.58096124 33.45974614 31.26929956 33.46859269 28.95769119 33.48405075 C25.7235876 33.50365271 22.49046718 33.49789487 19.25634766 33.48583984 C17.82539009 33.50269836 17.82539009 33.50269836 16.36552429 33.51989746 C10.78378811 33.46704474 7.28345369 32.94393135 3 29 C0 23 0 23 0 0 Z " fill="#E8EAED" transform="translate(91,400)"/>
<path d="M0 0 C10.56 0 21.12 0 32 0 C32 10.56 32 21.12 32 32 C21.44 32 10.88 32 0 32 C0 21.44 0 10.88 0 0 Z " fill="#E8EAED" transform="translate(136,257)"/>
</svg>
