<?xml version="1.0" encoding="UTF-8"?>
<svg version="1.1" xmlns="http://www.w3.org/2000/svg" width="304" height="433">
<path d="M0 0 C0.7513623 0.17160645 1.50272461 0.34321289 2.27685547 0.52001953 C30.90574196 7.28289139 53.92850285 22.95714102 75 43 C75.64453125 43.59167969 76.2890625 44.18335938 76.953125 44.79296875 C103.79844053 70.19566219 117.08995693 107.65320449 118.2890625 143.8984375 C119.01149376 182.40613294 109.66425275 217.66942543 84 247 C83.56929199 247.49242187 83.13858398 247.98484375 82.69482422 248.4921875 C74.35585149 257.9640585 65.72870817 266.62781835 54.93359375 273.296875 C52.40567638 275.52348505 52.44672797 276.67274323 52 280 C51.89749357 282.73856261 51.83944519 285.45657806 51.82421875 288.1953125 C51.80100476 289.81511694 51.7768868 291.43490862 51.75195312 293.0546875 C51.71702634 295.58211634 51.68758511 298.10907924 51.67407227 300.63671875 C51.58885998 313.9980055 50.67940868 325.80644259 41 336 C32.55803654 343.85298927 23.68376198 345.45046482 12.4284668 345.43579102 C11.30526031 345.44586685 10.18205383 345.45594269 9.02481079 345.46632385 C5.33284393 345.49468687 1.6412876 345.50067453 -2.05078125 345.50390625 C-4.63234115 345.51355505 -7.21389942 345.5236481 -9.79545593 345.53416443 C-15.19953921 345.55209646 -20.60346127 345.55781749 -26.00756836 345.5559082 C-32.22614757 345.55410758 -38.44394468 345.58574706 -44.66232616 345.63313919 C-50.6771712 345.677322 -56.69159628 345.68786632 -62.70662498 345.68607903 C-65.25058372 345.68960444 -67.79454909 345.70279104 -70.3384037 345.72607613 C-86.49489227 345.86012943 -97.24035836 345.6499391 -110 335 C-111.73046875 332.8515625 -111.73046875 332.8515625 -113.1875 330.625 C-113.67605469 329.89539063 -114.16460937 329.16578125 -114.66796875 328.4140625 C-118.08715485 322.21741438 -118.27182373 316.69321208 -118.1953125 309.7890625 C-118.1924826 308.82092621 -118.18965271 307.85278992 -118.18673706 306.85531616 C-118.17558696 303.77841572 -118.1504918 300.70181172 -118.125 297.625 C-118.11496352 295.5325563 -118.10583884 293.44010802 -118.09765625 291.34765625 C-118.07566453 286.23165749 -118.04117025 281.11587892 -118 276 C-118.77561279 275.70955811 -119.55122559 275.41911621 -120.3503418 275.11987305 C-123.46658722 273.80279779 -125.35012676 272.12370978 -127.8125 269.8125 C-130.84736116 266.99313194 -133.89088321 264.2266581 -137.0625 261.5625 C-159.32529176 241.96591085 -174.62521687 213.16800267 -181.875 184.6875 C-182.16165527 183.56166504 -182.16165527 183.56166504 -182.45410156 182.41308594 C-185.44172689 169.77396682 -186.38346123 157.14035538 -186.3125 144.1875 C-186.31067719 143.49067108 -186.30885437 142.79384216 -186.30697632 142.07589722 C-186.25900145 131.14465852 -185.65161491 120.63805782 -183 110 C-182.75854248 108.97326172 -182.75854248 108.97326172 -182.51220703 107.92578125 C-173.27904813 69.53854617 -145.90426412 38.48243853 -113.08300781 17.79150391 C-109.13284569 15.37681144 -105.09936746 13.15374087 -101 11 C-99.98035156 10.45730469 -98.96070312 9.91460937 -97.91015625 9.35546875 C-88.66752322 4.75163515 -79.04507143 2.1797408 -69 0 C-67.85047852 -0.24991699 -67.85047852 -0.24991699 -66.67773438 -0.50488281 C-45.10643642 -4.95361762 -21.47676332 -4.96810707 0 0 Z M-123.5625 72.6875 C-145.41874215 97.69904471 -153.55710864 129.29339716 -151.38671875 161.90234375 C-151.1805918 164.80728779 -150.72188865 167.11244541 -150 170 C-73.11 170 3.78 170 83 170 C86.86945764 139.04433887 81.27456435 107.18294155 62.5625 81.625 C42.26315533 55.9379868 14.25566787 36.04677404 -19 32 C-60.30288074 29.75677541 -94.94825491 42.39006403 -123.5625 72.6875 Z " fill="#E8EAED" transform="translate(186,3)"/>
<path d="M0 0 C40.59 0 81.18 0 123 0 C123 25 123 25 118 31 C115.14852538 32.90248359 112.96944813 33.25250296 109.57315063 33.26742554 C108.69283676 33.27595551 107.81252289 33.28448547 106.90553284 33.29327393 C105.94751266 33.29236755 104.98949249 33.29146118 104.00244141 33.29052734 C102.47983452 33.30060318 102.47983452 33.30060318 100.9264679 33.31088257 C97.56811642 33.32989327 94.20996445 33.33378831 90.8515625 33.3359375 C88.51752642 33.34236319 86.18349116 33.34909138 83.84945679 33.35610962 C78.95528292 33.36809001 74.06117968 33.37178964 69.16699219 33.37060547 C62.89662123 33.37040222 56.62670319 33.39770775 50.35643959 33.43214989 C45.53514527 33.45439037 40.71396045 33.45844388 35.89262009 33.45738602 C33.58096124 33.45974614 31.26929956 33.46859269 28.95769119 33.48405075 C25.7235876 33.50365271 22.49046718 33.49789487 19.25634766 33.48583984 C17.82539009 33.50269836 17.82539009 33.50269836 16.36552429 33.51989746 C10.78378811 33.46704474 7.28345369 32.94393135 3 29 C0 23 0 23 0 0 Z " fill="#E8EAED" transform="translate(91,400)"/>
</svg>
