<?xml version="1.0" encoding="UTF-8"?>
<svg version="1.1" xmlns="http://www.w3.org/2000/svg" width="304" height="433">
<path d="M0 0 C0.78938965 0.19867676 1.5787793 0.39735352 2.39208984 0.60205078 C29.79811587 7.67474453 51.42809486 21.81460258 72 41 C72.80179687 41.73605469 73.60359375 42.47210938 74.4296875 43.23046875 C102.30554715 69.81495471 115.95334153 106.54688314 117.29296875 144.53125 C118.07936099 184.26614764 107.24137886 221.15086891 79.54296875 250.28125 C77.74516423 252.20332673 76.05751355 254.11039293 74.39453125 256.140625 C72.50449607 258.3975675 70.71593621 260.33623691 68.5 262.25 C67.86054443 262.81702637 67.22108887 263.38405273 66.56225586 263.96826172 C64 266 64 266 60.75415039 267.85498047 C56.39703508 270.4326598 51.98311747 273.07897136 50.29876709 278.08349609 C49.30940789 283.97899915 49.65960063 289.92957233 49.9375 295.875 C50.03912179 299.39297318 50.10516112 302.91058593 50.15234375 306.4296875 C50.16624649 307.26992966 50.18014923 308.11017181 50.19447327 308.97587585 C50.22574886 320.07706094 46.73954482 328.99754071 39 337 C31.02056607 344.6717931 20.00493064 345.45108506 9.44506836 345.40405273 C7.79889275 345.41434761 7.79889275 345.41434761 6.11946106 345.42485046 C2.52612016 345.44301023 -1.06677974 345.43929715 -4.66015625 345.43359375 C-7.17638794 345.43815989 -9.69261839 345.44346675 -12.20884705 345.44947815 C-17.46812904 345.45838737 -22.72729827 345.45624672 -27.98657227 345.44604492 C-34.04261465 345.43455626 -40.09821455 345.44866583 -46.15419871 345.4754414 C-52.01310951 345.50036294 -57.87184952 345.50276118 -63.73080254 345.49632454 C-66.20940322 345.49617166 -68.68801258 345.50218785 -71.16658211 345.51461601 C-74.63620681 345.52956781 -78.10486744 345.51881787 -81.57446289 345.50170898 C-82.58721283 345.51137695 -83.59996277 345.52104492 -84.6434021 345.53100586 C-95.58563086 345.41857091 -103.03324917 341.74068928 -110.8671875 334.23828125 C-117.90421488 326.853269 -119.30556998 319.73837475 -119.1953125 309.7890625 C-119.1924826 308.82092621 -119.18965271 307.85278992 -119.18673706 306.85531616 C-119.17558696 303.77841572 -119.1504918 300.70181172 -119.125 297.625 C-119.11496352 295.5325563 -119.10583884 293.44010802 -119.09765625 291.34765625 C-119.07566453 286.23165749 -119.04117025 281.11587892 -119 276 C-119.92897095 275.54753906 -119.92897095 275.54753906 -120.87670898 275.0859375 C-132.03583079 269.37870814 -142.25821963 258.71640451 -150 249 C-150.64340332 248.20045898 -150.64340332 248.20045898 -151.29980469 247.38476562 C-175.07951632 217.59975106 -187.51580013 182.38071699 -187.3125 144.25 C-187.31001251 143.50199127 -187.30752502 142.75398254 -187.30496216 141.98330688 C-187.09941257 101.97695118 -171.49551494 67.98793514 -143.14282227 39.8425293 C-132.57302358 29.61021016 -120.72905971 21.32454274 -108 14 C-107.36368652 13.63245605 -106.72737305 13.26491211 -106.07177734 12.88623047 C-94.96104882 6.59708508 -83.39326229 2.92177675 -71 0 C-70.26040039 -0.17934082 -69.52080078 -0.35868164 -68.75878906 -0.54345703 C-47.54099334 -5.45074235 -21.09509328 -5.48186757 0 0 Z M-123.3046875 71 C-142.95306991 92.36248066 -154.23937928 122.93827868 -153.21484375 151.953125 C-153.14394531 152.95859375 -153.07304687 153.9640625 -153 155 C-152.91878906 156.31484375 -152.83757812 157.6296875 -152.75390625 158.984375 C-150.82937242 183.86425888 -141.59221428 208.60949157 -124.61039162 227.21762657 C-123.37266171 228.58753988 -122.19808915 230.01471554 -121.05335045 231.46323586 C-116.46712366 236.78560293 -113.11750239 239.62130063 -105.99380493 240.28329468 C-103.25920375 240.34866059 -100.55851407 240.36110294 -97.82666016 240.32568359 C-96.31752997 240.34254042 -94.80844188 240.36360421 -93.29942322 240.38851929 C-89.22627014 240.44234961 -85.15558007 240.43329052 -81.08223009 240.40911818 C-77.67034337 240.39478909 -74.25890289 240.41189859 -70.84705102 240.42892897 C-62.79150037 240.46875075 -54.73713781 240.45779418 -46.68164062 240.41357422 C-38.39741394 240.36886858 -30.11630612 240.40402443 -21.83237422 240.47967279 C-14.69549835 240.54233338 -7.55958312 240.55791577 -0.42246664 240.53576529 C3.82953299 240.52284842 8.07973556 240.52650722 12.3315239 240.5744133 C16.33369882 240.61721608 20.33151218 240.60061012 24.33341789 240.54022598 C25.79255734 240.52766851 27.25204267 240.53505975 28.71092796 240.56504822 C36.29249737 240.70813188 41.60944496 240.03723229 47.17368853 234.79447329 C49.58919984 232.29175882 51.80501966 229.70064326 54 227 C54.62604315 226.25491369 55.2520863 225.50982738 55.89710045 224.7421627 C57.26189546 223.08162197 58.51725948 221.38522703 59.75 219.625 C60.19625732 218.99907959 60.64251465 218.37315918 61.10229492 217.72827148 C79.62814706 191.30876653 86.85009129 160.99286653 81.47827148 129.01318359 C75.8289601 99.01425076 58.87716494 71.34679826 33.75 53.65234375 C-17.62159962 18.93161652 -80.28573232 26.87799469 -123.3046875 71 Z " fill="#E8EAED" transform="translate(187,3)"/>
<path d="M0 0 C40.59 0 81.18 0 123 0 C123 24 123 24 119 30 C114.52075944 33.89943222 109.63954873 33.43097649 103.99658203 33.40405273 C102.99272461 33.41091599 101.98886719 33.41777924 100.95458984 33.42485046 C97.63885316 33.44313921 94.32358876 33.4392775 91.0078125 33.43359375 C88.70002081 33.43815491 86.39223049 33.44346028 84.08444214 33.44947815 C79.24748213 33.45841363 74.41068717 33.45598147 69.57373047 33.44604492 C63.38080754 33.43456149 57.18845533 33.45475548 50.99560738 33.48396206 C46.22916047 33.50232608 41.46285022 33.50203103 36.6963768 33.49632454 C34.41346308 33.49617131 32.13054011 33.50221654 29.84766006 33.51461601 C26.65214724 33.52952547 23.45768735 33.51884794 20.26220703 33.50170898 C19.32275238 33.51137695 18.38329773 33.52104492 17.41537476 33.53100586 C11.44495847 33.46409307 7.78535685 32.6817979 3 29 C0 23 0 23 0 0 Z " fill="#E8EAED" transform="translate(91,400)"/>
</svg>
