<?xml version="1.0" encoding="UTF-8"?>
<svg version="1.1" xmlns="http://www.w3.org/2000/svg" width="304" height="433">
<path d="M0 0 C0.78938965 0.19867676 1.5787793 0.39735352 2.39208984 0.60205078 C29.79811587 7.67474453 51.42809486 21.81460258 72 41 C72.80179687 41.73605469 73.60359375 42.47210938 74.4296875 43.23046875 C102.30554715 69.81495471 115.95334153 106.54688314 117.29296875 144.53125 C118.07936099 184.26614764 107.24137886 221.15086891 79.54296875 250.28125 C77.74516423 252.20332673 76.05751355 254.11039293 74.39453125 256.140625 C72.50449607 258.3975675 70.71593621 260.33623691 68.5 262.25 C67.86054443 262.81702637 67.22108887 263.38405273 66.56225586 263.96826172 C64 266 64 266 60.75415039 267.85498047 C56.39703508 270.4326598 51.98311747 273.07897136 50.29876709 278.08349609 C49.30940789 283.97899915 49.65960063 289.92957233 49.9375 295.875 C50.03912179 299.39297318 50.10516112 302.91058593 50.15234375 306.4296875 C50.16624649 307.26992966 50.18014923 308.11017181 50.19447327 308.97587585 C50.22574886 320.07706094 46.73954482 328.99754071 39 337 C31.02056607 344.6717931 20.00493064 345.45108506 9.44506836 345.40405273 C7.79889275 345.41434761 7.79889275 345.41434761 6.11946106 345.42485046 C2.52612016 345.44301023 -1.06677974 345.43929715 -4.66015625 345.43359375 C-7.17638794 345.43815989 -9.69261839 345.44346675 -12.20884705 345.44947815 C-17.46812904 345.45838737 -22.72729827 345.45624672 -27.98657227 345.44604492 C-34.04261465 345.43455626 -40.09821455 345.44866583 -46.15419871 345.4754414 C-52.01310951 345.50036294 -57.87184952 345.50276118 -63.73080254 345.49632454 C-66.20940322 345.49617166 -68.68801258 345.50218785 -71.16658211 345.51461601 C-74.63620681 345.52956781 -78.10486744 345.51881787 -81.57446289 345.50170898 C-82.58721283 345.51137695 -83.59996277 345.52104492 -84.6434021 345.53100586 C-95.58563086 345.41857091 -103.03324917 341.74068928 -110.8671875 334.23828125 C-117.90421488 326.853269 -119.30556998 319.73837475 -119.1953125 309.7890625 C-119.1924826 308.82092621 -119.18965271 307.85278992 -119.18673706 306.85531616 C-119.17558696 303.77841572 -119.1504918 300.70181172 -119.125 297.625 C-119.11496352 295.5325563 -119.10583884 293.44010802 -119.09765625 291.34765625 C-119.07566453 286.23165749 -119.04117025 281.11587892 -119 276 C-119.92897095 275.54753906 -119.92897095 275.54753906 -120.87670898 275.0859375 C-132.03583079 269.37870814 -142.25821963 258.71640451 -150 249 C-150.64340332 248.20045898 -150.64340332 248.20045898 -151.29980469 247.38476562 C-175.07951632 217.59975106 -187.51580013 182.38071699 -187.3125 144.25 C-187.31001251 143.50199127 -187.30752502 142.75398254 -187.30496216 141.98330688 C-187.09941257 101.97695118 -171.49551494 67.98793514 -143.14282227 39.8425293 C-132.57302358 29.61021016 -120.72905971 21.32454274 -108 14 C-107.36368652 13.63245605 -106.72737305 13.26491211 -106.07177734 12.88623047 C-94.96104882 6.59708508 -83.39326229 2.92177675 -71 0 C-70.26040039 -0.17934082 -69.52080078 -0.35868164 -68.75878906 -0.54345703 C-47.54099334 -5.45074235 -21.09509328 -5.48186757 0 0 Z M-143 102 C-149.51528088 117.88925981 -149.51528088 117.88925981 -152 135 C-74.78 135 2.44 135 82 135 C80.73882165 126.8023407 79.65708723 119.91543365 76.9375 112.3125 C76.66873047 111.52939453 76.39996094 110.74628906 76.12304688 109.93945312 C74.73449905 105.89892361 74.73449905 105.89892361 73 102 C1.72 102 -69.56 102 -143 102 Z M-138 207 C-132.93053679 216.46053556 -132.93053679 216.46053556 -126.625 224.6875 C-125.97917969 225.44256836 -125.97917969 225.44256836 -125.3203125 226.21289062 C-124.43574869 227.23245327 -123.53163518 228.23542841 -122.60754013 229.21930313 C-121 231 -121 231 -119.48477554 233.02761459 C-116.59260454 236.53504462 -114.32617469 238.68207408 -109.83168793 239.75954437 C-105.89549444 240.06946279 -101.99790906 240.12876705 -98.05371094 240.09863281 C-96.54488612 240.11604484 -95.03609662 240.13678536 -93.52735901 240.1605835 C-89.44617701 240.21395543 -85.36648071 240.21648058 -81.28501797 240.2063303 C-77.86830134 240.20203664 -74.45188088 240.22162288 -71.03522801 240.24075198 C-62.96743112 240.28507055 -54.90037913 240.2869208 -46.83251953 240.26269531 C-38.53364355 240.23855743 -30.23748393 240.2877279 -21.93907142 240.37297559 C-14.79380871 240.44365412 -7.64940632 240.46741183 -0.50380731 240.45442462 C3.7550114 240.44720282 8.011894 240.45740204 12.27039337 240.51328278 C16.28062445 240.56393969 20.28665772 240.55553052 24.29683113 240.50363922 C25.75923961 240.49424723 27.22195127 240.50486327 28.68401146 240.53813171 C36.261869 240.69798211 41.59775286 240.05155335 47.16553569 234.81206965 C49.58710606 232.30461686 51.8035996 229.70967837 54 227 C54.65908985 226.20536472 55.3181797 225.41072945 55.99724197 224.59201431 C57.45064875 222.79339742 58.79823454 220.95581904 60.125 219.0625 C60.57875 218.44310547 61.0325 217.82371094 61.5 217.18554688 C63.92605702 213.80844679 65.43312132 210.9171967 67 207 C-0.65 207 -68.3 207 -138 207 Z " fill="#E8EAED" transform="translate(187,3)"/>
<path d="M0 0 C40.59 0 81.18 0 123 0 C123 24 123 24 119 30 C114.52075944 33.89943222 109.63954873 33.43097649 103.99658203 33.40405273 C102.99272461 33.41091599 101.98886719 33.41777924 100.95458984 33.42485046 C97.63885316 33.44313921 94.32358876 33.4392775 91.0078125 33.43359375 C88.70002081 33.43815491 86.39223049 33.44346028 84.08444214 33.44947815 C79.24748213 33.45841363 74.41068717 33.45598147 69.57373047 33.44604492 C63.38080754 33.43456149 57.18845533 33.45475548 50.99560738 33.48396206 C46.22916047 33.50232608 41.46285022 33.50203103 36.6963768 33.49632454 C34.41346308 33.49617131 32.13054011 33.50221654 29.84766006 33.51461601 C26.65214724 33.52952547 23.45768735 33.51884794 20.26220703 33.50170898 C19.32275238 33.51137695 18.38329773 33.52104492 17.41537476 33.53100586 C11.44495847 33.46409307 7.78535685 32.6817979 3 29 C0 23 0 23 0 0 Z " fill="#E8EAED" transform="translate(91,400)"/>
</svg>
