<?xml version="1.0" encoding="UTF-8"?>
<svg version="1.1" xmlns="http://www.w3.org/2000/svg" width="304" height="433">
<path d="M0 0 C0.7542627 0.17160645 1.50852539 0.34321289 2.28564453 0.52001953 C24.94757647 5.87560598 45.58593761 16.4805876 63 32 C63.83660156 32.72832031 64.67320312 33.45664062 65.53515625 34.20703125 C95.37702423 60.54351752 114.51406008 93.92215926 118 134 C119.03277995 151.55883825 119.23932309 169.85070932 115 187 C114.80664062 187.79438477 114.61328125 188.58876953 114.4140625 189.40722656 C105.87023094 223.25292966 83.83488714 256.07787359 54 275 C53.34 275 52.68 275 52 275 C52.01740234 276.26263672 52.01740234 276.26263672 52.03515625 277.55078125 C52.06775124 282.03492125 52.04768501 286.51604559 52 291 C51.98888184 292.06605469 51.97776367 293.13210938 51.96630859 294.23046875 C51.91697401 297.7586391 51.83665914 301.28506256 51.75 304.8125 C51.73590088 305.94405518 51.72180176 307.07561035 51.70727539 308.24145508 C51.39045796 319.0519612 48.79196508 329.12184061 41 337 C32.30219581 344.12648555 24.51128405 345.2991616 13.5637207 345.32226562 C12.4310527 345.33219543 11.2983847 345.34212524 10.13139343 345.35235596 C6.39616434 345.38148831 2.66110514 345.39518479 -1.07421875 345.40625 C-3.68105572 345.41776242 -6.28789267 345.42927777 -8.89472961 345.4407959 C-13.66066823 345.45990589 -18.42657054 345.47171934 -23.19254273 345.4777894 C-30.17752635 345.48673808 -37.16172472 345.52179095 -44.14646977 345.57979059 C-50.22321361 345.62847456 -56.29963676 345.64368954 -62.37656593 345.6471405 C-64.94844651 345.65317078 -67.5203247 345.66915061 -70.09207726 345.69551086 C-97.42398197 345.95565569 -97.42398197 345.95565569 -109.5 335.125 C-114.92047607 329.24248751 -118.13721928 322.65455605 -118.11352539 314.59863281 C-118.11341209 313.3077475 -118.11341209 313.3077475 -118.11329651 311.99078369 C-118.10813522 311.07085632 -118.10297394 310.15092896 -118.09765625 309.203125 C-118.0962413 308.25435486 -118.09482635 307.30558472 -118.09336853 306.32806396 C-118.08777742 303.30201038 -118.07522652 300.27603117 -118.0625 297.25 C-118.05748385 295.19661565 -118.05292115 293.14323014 -118.04882812 291.08984375 C-118.03781089 286.05986724 -118.02055233 281.02994622 -118 276 C-118.61786377 275.69980957 -119.23572754 275.39961914 -119.87231445 275.09033203 C-130.32548364 269.73360758 -139.64071231 260.00622506 -147 251 C-147.40476563 250.51289551 -147.80953125 250.02579102 -148.2265625 249.52392578 C-176.77681812 215.03613527 -189.16287474 172.68343415 -185.78173828 128.12353516 C-183.95851655 110.62509251 -178.96440136 94.62590602 -171 79 C-170.51660156 78.02417969 -170.03320312 77.04835938 -169.53515625 76.04296875 C-163.72545437 64.79371219 -155.68070042 55.1440345 -147 46 C-146.5364209 45.50387207 -146.0728418 45.00774414 -145.59521484 44.49658203 C-108.54449714 5.04139298 -53.08343236 -12.09929245 0 0 Z " fill="#E8EAED" transform="translate(186,3)"/>
<path d="M0 0 C40.26 0 80.52 0 122 0 C122 24 122 24 116 31 C113.69186313 32.15406844 112.3516447 32.13772493 109.78242493 32.16062927 C108.89789139 32.1706749 108.01335785 32.18072052 107.10202026 32.19107056 C105.64253464 32.19981705 105.64253464 32.19981705 104.15356445 32.20874023 C103.13063797 32.21852402 102.10771149 32.2283078 101.05378723 32.23838806 C97.65696523 32.26838544 94.26018275 32.28974072 90.86328125 32.30859375 C89.70440084 32.31516558 88.54552044 32.3217374 87.35152245 32.32850838 C81.21621293 32.36112259 75.08092092 32.38556725 68.94555664 32.4050293 C63.86554703 32.42284019 58.78609273 32.45765513 53.70629883 32.50756836 C47.57664013 32.56773194 41.4474963 32.59850041 35.31755638 32.60820198 C32.98155927 32.61676526 30.64557623 32.6356046 28.3097477 32.6649456 C25.03702441 32.70383816 21.76630756 32.70489675 18.4934082 32.69702148 C17.04910431 32.7270224 17.04910431 32.7270224 15.57562256 32.75762939 C9.66436869 32.69386736 6.53303652 31.63039693 2.25999737 27.48330784 C-4.28134242 19.78264049 0 11.85066797 0 0 Z " fill="#E8EAED" transform="translate(92,401)"/>
</svg>
